<?xml version="1.0" encoding="utf-8"?>

<!DOCTYPE svg PUBLIC "-//W3C//DTD SVG 1.1//EN" "http://www.w3.org/Graphics/SVG/1.1/DTD/svg11.dtd">
<!-- Uploaded to: SVG Repo, www.svgrepo.com, Generator: SVG Repo Mixer Tools -->
<svg height="800px" width="800px" version="1.1" id="_x32_" xmlns="http://www.w3.org/2000/svg" xmlns:xlink="http://www.w3.org/1999/xlink" 
	 viewBox="0 0 512 512"  xml:space="preserve">
<style type="text/css">
	.st0{fill:#ffecec;}
</style>
<g>
	<path class="st0" d="M488.493,269.968c-3.929-8.774-9.925-18.908-18.041-27.775c-4.073-4.417-8.702-8.519-13.914-11.917
		c-5.202-3.372-11.033-6.022-17.395-7.457c-3.456-0.773-7.623-1.606-12.252-2.438c6.413-0.298,12.524-1.834,18.168-4.162
		c8.605-3.584,16.198-8.978,22.687-14.882c6.464-5.92,11.844-12.4,15.952-18.346l2.871-4.17l-3.185-3.941
		c-5.934-7.262-14.07-15.29-23.88-21.651c-4.91-3.194-10.248-5.963-15.94-7.958c-5.703-1.988-11.793-3.211-18.113-3.211
		c-0.637,0-1.274,0.026-1.954,0.06c-9.309,0.373-19.824,0.781-28.989,1.146c5.028-2.064,9.038-3.712,11.619-4.782
		c6.035-2.48,11.331-6.074,15.897-10.269c6.854-6.319,12.129-13.989,16.172-21.787c4.038-7.789,6.862-15.713,8.667-22.712
		l1.266-4.909l-4.357-2.582c-5.946-3.534-13.14-6.999-21.09-9.649c-7.938-2.633-16.61-4.451-25.486-4.468
		c-6.978,0-14.104,1.13-20.925,3.95c-6.476,2.676-16.189,6.549-26.458,10.635c1.159-0.722,2.205-1.376,3.1-1.928
		c5.517-3.499,10.104-7.942,13.896-12.868c5.661-7.398,9.556-15.858,12.198-24.224c2.654-8.384,4.077-16.673,4.638-23.884
		l0.408-5.046l-4.718-1.784C369.452,3.185,356.706,0.009,343.418,0c-5.47,0-11.038,0.552-16.512,1.894
		c-5.466,1.333-10.842,3.456-15.815,6.6c-15.336,9.675-72.597,45.833-94.358,59.558l-7.696-6.285l-91.152,58.369
		c-4.846-3.228-7.764-4.926-7.865-4.986l-4.816-2.82l-38.422,43.922l15.65,11.169c-6.956,8.621-19.952,25.184-20.274,29.406
		c-0.437,5.767,0.336,31.138,0,35.461c-0.322,4.315-39.798,55.364-40.677,66.89c-0.866,11.534,9.883,17.582,25.333,17.421
		l-6.604,27.121l5.602,4.391c0,0,3.393,13.752-0.535,22.619c-6.757,15.187,4.149,25.711,10.124,28.693
		c21.685,10.846,80.819-1.198,117.419-30.29c1.254,44.074,8.023,76.241,14.894,97.952c7.619,24.054,15.327,35.292,15.701,35.818
		l6.354,9.097l5.16-9.819c4.387-8.358,7.844-18.075,10.634-28.752c3.143-11.942,5.419-25.074,7.071-38.825
		c4.952,6.183,10.987,11.229,17.247,15.314c6.706,4.383,13.62,7.662,19.795,9.913l4.76,1.758l3.011-4.086
		c4.166-5.64,8.426-12.715,11.697-20.648c3.269-7.942,5.588-16.768,5.61-25.932c0-4.595-0.595-9.275-1.984-13.879
		c-1.766-5.894-4.094-13.013-6.497-20.139c18.771,17.362,38.158,35.275,45.731,42.266c6.642,6.141,14.571,10.056,22.7,12.426
		c8.146,2.403,16.546,3.278,24.474,3.278c7.092,0,13.807-0.705,19.667-1.783l4.982-0.918l0.523-5.028
		c0.357-3.475,0.556-7.229,0.556-11.178c0-8.885-1.045-18.738-4-28.276c-1.486-4.756-3.436-9.454-6.01-13.879
		c-2.577-4.408-5.784-8.553-9.704-12.188c-3.767-3.482-8.396-7.662-13.275-12.07c6.54,3.431,11.908,6.251,15.284,8.035
		c8.545,4.468,17.828,6.167,26.844,6.167c15.458-0.034,30.315-4.816,41.314-10.015l4.574-2.183l-0.803-5.003
		c-0.807-4.969-2.34-10.66-4.421-16.588c-3.134-8.851-7.487-18.194-12.775-25.983c-1.167-1.724-2.403-3.355-3.664-4.91
		c7.614-1.163,15.144-3.346,22.164-6.115c5.224-2.055,10.155-4.459,14.584-7.007c4.446-2.548,8.396-5.266,11.687-8.086l3.864-3.279
		L488.493,269.968z M90.539,156.61l-3.771-2.693l21.149-24.182c3.793,2.447,9.654,6.405,16.746,11.688l-22.636,23.324
		C95.449,159.879,91.163,157.034,90.539,156.61z M126.116,184.079c-2.256-1.971-4.472-3.839-6.613-5.614l22.513-23.197
		c3.216,2.735,6.507,5.64,9.862,8.732c1.813,1.681,3.644,3.423,5.492,5.215l-23.074,22.144
		C131.518,188.81,128.779,186.372,126.116,184.079z M162.592,220.347c-4.085-4.748-8.251-9.275-12.43-13.59l22.492-21.608
		c5.619,6.32,11.102,13.072,16.252,20.232L162.592,220.347z M176.433,237.878l24.445-13.888c3.1,5.428,5.954,11.016,8.502,16.792
		c-2.82-0.951-5.839-1.495-8.964-1.495c-6.978,0-13.391,2.608-18.309,6.846C180.277,243.332,178.378,240.596,176.433,237.878z
		 M190.13,257.074c2.642-2.658,6.242-4.272,10.286-4.272c4.042,0,7.657,1.614,10.311,4.272c2.642,2.65,4.252,6.243,4.272,10.295
		c-0.021,4.035-1.631,7.644-4.272,10.303c-2.654,2.642-6.268,4.272-10.311,4.272c-4.044,0-7.644-1.631-10.286-4.272
		c-2.654-2.659-4.272-6.268-4.272-10.303C185.857,263.317,187.475,259.724,190.13,257.074z M221.37,410.134
		c-0.638,9.241-1.513,18.356-2.684,27.095c-1.534,11.722-3.572,22.824-6.171,32.778c-1.266,4.782-2.654,9.309-4.17,13.497
		c-8.358-18.407-22.237-59.44-22.25-129.064c0-18.39,0.994-38.792,3.291-61.258c3.385,1.453,7.122,2.268,11.03,2.268
		c6.612,0,12.724-2.319,17.518-6.175l-0.22,5.427C217.714,294.702,227.668,381.51,221.37,410.134z M348.883,347.059
		c0.293,0.229,0.586,0.484,0.846,0.73l-22.615,6.626l-11.157-10.312l22.292-6.514C341.456,340.442,345.091,343.652,348.883,347.059z
		 M348.569,299.85l13.433,6.922l1.308,22.993c-4.328-2.276-8.851-4.655-13.454-7.067L348.569,299.85z M266.621,147.24
		c-1.877-4.51-3.81-8.858-5.797-13.021l46.775-26.382c1.622-0.612,7.95-3.1,16.432-6.438l-3.593,23.97L266.621,147.24z
		 M269.39,369.27l-8.647-2.192c1.317-2.837,2.569-5.674,3.771-8.494l1.253,0.324C266.85,361.974,268.086,365.506,269.39,369.27z
		 M324.681,134.577l19.616,14.575c-6.141,2.523-12.389,5.072-18.542,7.576c-15.544,6.337-30.451,12.401-41.479,16.894
		c-2.684,1.096-5.139,2.107-7.322,2.982c-2.026-6.922-4.242-13.565-6.613-19.926L324.681,134.577z M365.128,209.509
		c-6.176,0.271-12.494,0.552-18.784,0.841h-61.912c-0.98-6.345-2.174-12.494-3.542-18.482l70.885-2.744L365.128,209.509z
		 M363.582,188.665l15.196-0.586l13.288,20.258c-4.807,0.212-9.903,0.442-15.165,0.671L363.582,188.665z M350.408,179.042
		l-42.848,1.647l51.999-18.363L350.408,179.042z M281.757,304.394l45.001,23.001c0.221,0.196,0.492,0.425,0.828,0.74
		c0.467,0.407,1.045,0.925,1.724,1.503l-22.033,6.447l-27.023-24.963C280.788,308.87,281.289,306.611,281.757,304.394z
		 M332.21,313.406c-12.21-6.413-23.783-12.503-32.319-16.996c-4.26-2.226-7.759-4.086-10.205-5.351
		c-0.302-0.162-0.595-0.323-0.867-0.459l-2.276-12.962l27.64,4.527l23.931,12.325l1.295,22.696
		C336.983,315.92,334.592,314.662,332.21,313.406z M287.359,258.366c0.259-8.392,0.144-16.58-0.356-24.53l70.741,15.977
		l8.145,24.734C338.479,268.864,307.089,262.417,287.359,258.366z M358.869,239.679l-60.71-13.708
		c13.705-0.604,30.981-1.368,48.487-2.124h12.214c0.395,0.051,1.053,0.136,2.004,0.272c2.391,0.322,6.414,0.841,11.408,1.545
		L358.869,239.679z M385.233,245.624l-14.83-3.337l14.228-14.89c3.528,0.502,7.257,1.046,11.037,1.614
		c1.567,0.246,3.156,0.476,4.766,0.722L385.233,245.624z M392.075,280c-2.204-0.467-4.51-0.952-6.871-1.452
		c-2.548-0.526-5.181-1.062-7.866-1.64l-8.073-24.496l14.83,3.347L392.075,280z M390.592,187.62l6.914-0.272l13.246,20.19
		c-2.161,0.102-4.481,0.196-6.927,0.306L390.592,187.62z M400.683,156.533c2.276-0.085,4.595-0.178,6.927-0.264l-11.501,20.997
		l-6.914,0.271L400.683,156.533z M377.389,177.997l-15.178,0.586l11.48-20.988c2.739-0.093,8.294-0.314,15.19-0.603L377.389,177.997
		z M386.757,131.833c-2.012,0.841-4.157,1.707-6.434,2.634L360.757,119.9l6.439-2.616L386.757,131.833z M359.849,87.232
		c2.196-0.866,4.337-1.724,6.396-2.548l-3.534,23.486l-6.413,2.6L359.849,87.232z M369.367,138.942
		c-4.472,1.827-9.212,3.772-14.091,5.759L335.659,130.1l14.134-5.741L369.367,138.942z M336.453,96.516
		c4.064-1.606,8.282-3.279,12.503-4.935l-3.564,23.63l-14.036,5.725l3.572-23.833C335.429,96.906,335.939,96.719,336.453,96.516z
		 M311.255,60.697l21.456,10.813c-1.839,1.172-3.81,2.412-5.856,3.703l-21.447-10.83L311.255,60.697z M304.405,28.684l0.544,24.029
		l-5.861,3.695l-0.544-24.012C300.592,31.096,302.546,29.864,304.405,28.684z M316.867,81.516c-4.137,2.624-8.46,5.351-12.848,8.128
		l-21.468-10.821l12.872-8.112L316.867,81.516z M288.547,38.689l0.544,24.029l-12.847,8.12l-0.556-24.02
		C280.096,44.05,284.411,41.314,288.547,38.689z M235.712,395.711c0.042-1.198,0.115-2.396,0.149-3.61
		c0.03,1.273,0.05,2.412,0.05,3.372L235.712,395.711z M238.302,94.774c-4.697-6.931-8.939-12.503-12.252-16.631
		c8.307-5.232,20.632-13.013,33.7-21.268c1.974-1.249,3.971-2.497,5.962-3.755l0.535,24.012L238.302,94.774z M243.861,103.26
		l28.705-18.135l21.455,10.822c-15.144,9.547-30.03,18.958-39.811,25.133C250.733,114.556,247.225,108.602,243.861,103.26z
		 M257.902,382.937l-1.831-6.082l0.221-0.458l17.017,4.324c0.76,2.242,1.491,4.493,2.221,6.702L257.902,382.937z M296.298,367.775
		c-2.005-1.852-4.001-3.686-5.976-5.504c-4.658-4.306-9.182-8.494-13.432-12.426c-1.474-4.146-2.413-6.719-2.413-6.744l-0.429-1.181
		l-2.111-2.42c2.026-5.818,3.856-11.552,5.453-17.242l23.808,21.999L296.298,367.775z M316.136,386.104
		c-3.593-3.304-7.344-6.787-11.156-10.32l4.9-23.51l11.157,10.311L316.136,386.104z M331.357,400.17
		c-2.018-1.86-4.213-3.882-6.54-6.039l4.897-23.528l6.532,6.048L331.357,400.17z M342.344,368.488l-6.55-6.048l22.836-6.684
		c2.264,2.046,4.489,4.052,6.651,6.014L342.344,368.488z M364.844,296.834l-18.135-9.326l26.378,4.323L364.844,296.834z
		 M373.754,335.26l-1.295-23.12l7.886,4.052l1.295,23.222C379.206,338.123,376.587,336.738,373.754,335.26z M383.365,306.373
		l-7.95-4.111l13.017-7.908l11.564,1.894L383.365,306.373z M403.546,282.404l-7.929-24.046l6.761,1.512l7.886,23.961
		C408.247,283.406,405.992,282.921,403.546,282.404z M403.524,249.761l-6.77-1.537l15.859-16.58
		c1.868,0.306,3.707,0.611,5.516,0.909c0.522,0.085,1.044,0.187,1.567,0.28L403.524,249.761z"/>
</g>
</svg>